<?xml version="1.0" encoding="UTF-8" standalone="no"?>
<!-- Copyright 2017 mathsisfun.com -->

<svg
   xmlns:dc="http://purl.org/dc/elements/1.1/"
   xmlns:cc="http://creativecommons.org/ns#"
   xmlns:rdf="http://www.w3.org/1999/02/22-rdf-syntax-ns#"
   xmlns:svg="http://www.w3.org/2000/svg"
   xmlns="http://www.w3.org/2000/svg"
   xmlns:xlink="http://www.w3.org/1999/xlink"
   xmlns:sodipodi="http://sodipodi.sourceforge.net/DTD/sodipodi-0.dtd"
   xmlns:inkscape="http://www.inkscape.org/namespaces/inkscape"
   width="245.207"
   height="245.205"
   version="1.0"
   id="svg251"
   sodipodi:docname="chkr-blk.svg"
   inkscape:version="0.92.3 (2405546, 2018-03-11)">
  <metadata
     id="metadata255">
    <rdf:RDF>
      <cc:Work
         rdf:about="">
        <dc:format>image/svg+xml</dc:format>
        <dc:type
           rdf:resource="http://purl.org/dc/dcmitype/StillImage" />
        <dc:title />
      </cc:Work>
    </rdf:RDF>
  </metadata>
  <sodipodi:namedview
     pagecolor="#ffffff"
     bordercolor="#666666"
     borderopacity="1"
     objecttolerance="10"
     gridtolerance="10"
     guidetolerance="10"
     inkscape:pageopacity="0"
     inkscape:pageshadow="2"
     inkscape:window-width="640"
     inkscape:window-height="480"
     id="namedview253"
     showgrid="false"
     inkscape:current-layer="svg251" />
  <defs
     id="defs89">
    <linearGradient
       id="linearGradient1070">
      <stop
         id="stop1064"
         style="stop-color:white;stop-opacity:0"
         offset="0" />
      <stop
         id="stop1066"
         style="stop-color:#ffffff;stop-opacity:0.602151"
         offset="0.5" />
      <stop
         id="stop1068"
         style="stop-color:#d8d8d8;stop-opacity:0"
         offset="1" />
    </linearGradient>
    <linearGradient
       id="id2">
      <stop
         offset="0"
         style="stop-color:#8d8d8d;stop-opacity:0.45098"
         id="stop32" />
      <stop
         offset="0.5"
         style="stop-color:#cacaca;stop-opacity:0.839216"
         id="stop34" />
      <stop
         offset="1"
         style="stop-color:#464646;stop-opacity:1"
         id="stop36" />
    </linearGradient>
    <linearGradient
       id="id1">
      <stop
         offset="0"
         style="stop-color:black;stop-opacity:1"
         id="stop44" />
      <stop
         offset="1"
         style="stop-color:#2c377b;stop-opacity:0.37"
         id="stop46" />
    </linearGradient>
    <linearGradient
       id="id17"
       xlink:href="#id1"
       x1="658.5"
       y1="811.7"
       x2="122.9"
       y2="278.1"
       gradientUnits="userSpaceOnUse" />
    <linearGradient
       id="id18"
       xlink:href="#linearGradient1070"
       x1="158.7"
       y1="340.6"
       x2="660.9"
       y2="767.8"
       gradientUnits="userSpaceOnUse"
       gradientTransform="matrix(0.471474,0,0,0.426779,-46.9624,-98.0418)" />
    <linearGradient
       id="id19"
       gradientTransform="matrix(0.437868,0,0,0.437868,-46.3131,-115.77)"
       xlink:href="#id2"
       x1="595.856"
       y1="752.567"
       x2="159.6"
       y2="354.5"
       gradientUnits="userSpaceOnUse" />
    <linearGradient
       inkscape:collect="always"
       xlink:href="#linearGradient1710"
       id="linearGradient1702"
       gradientUnits="userSpaceOnUse"
       gradientTransform="matrix(0.218331,0,0,0.218331,38.3774,3.74456)"
       x1="202.694"
       y1="748.285"
       x2="553.297"
       y2="317.167" />
    <linearGradient
       id="linearGradient1710">
      <stop
         id="stop1704"
         style="stop-color:#737373;stop-opacity:0.490196"
         offset="0" />
      <stop
         id="stop1706"
         style="stop-color:#aaaaaa;stop-opacity:0.839216"
         offset="0.5" />
      <stop
         id="stop1708"
         style="stop-color:#515151;stop-opacity:0.447059"
         offset="1" />
    </linearGradient>
    <linearGradient
       inkscape:collect="always"
       xlink:href="#linearGradient1718"
       id="linearGradient1698"
       gradientUnits="userSpaceOnUse"
       gradientTransform="matrix(0.244868,0,0,0.244868,28.1402,-10.7018)"
       x1="535.3"
       y1="683.8"
       x2="159.6"
       y2="354.5" />
    <linearGradient
       id="linearGradient1718">
      <stop
         id="stop1712"
         style="stop-color:#606060;stop-opacity:0.419608"
         offset="0" />
      <stop
         id="stop1714"
         style="stop-color:#949494;stop-opacity:0.839216"
         offset="0.5" />
      <stop
         id="stop1716"
         style="stop-color:#4e4e4e;stop-opacity:0.392157"
         offset="1" />
    </linearGradient>
  </defs>
  <circle
     cx="122.604"
     cy="122.602"
     r="122.571"
     style="color:#000000;overflow:visible;fill:#000000;stroke-width:5.25;stroke-linecap:round"
     id="circle115" />
  <path
     inkscape:connector-curvature="0"
     id="path125"
     d="m 229.086,122.602 a 106.506,107.036 0 1 1 -212.9651,0 106.506,107.036 0 1 1 212.9651,0 z"
     style="opacity:0.92;fill:url(#id18);stroke-width:0.793969;stroke-linejoin:bevel" />
  <path
     inkscape:connector-curvature="0"
     id="path127"
     d="M 122.603,0 C 54.9091,0 0,54.9087 0,122.602 c 0,67.695 54.9091,122.603 122.603,122.603 67.695,0 122.604,-54.908 122.604,-122.603 C 245.207,54.9087 190.298,0 122.603,0 Z m 0,14.9752 c 59.419,0 107.628,48.2093 107.628,107.6268 0,59.419 -48.209,107.628 -107.628,107.628 -59.4182,0 -107.6275,-48.209 -107.6275,-107.628 0,-59.4175 48.2093,-107.6268 107.6275,-107.6268 z"
     style="opacity:0.93;fill:url(#id19);stroke-width:0.775026;stroke-linejoin:bevel;stroke-opacity:0" />
  <path
     style="opacity:1;fill:url(#linearGradient1698);stroke-width:0.433417;stroke-linejoin:bevel;stroke-opacity:0"
     d="m 122.603,54.04 c -37.8559,0 -68.5629,30.7065 -68.5629,68.562 0,37.857 30.707,68.563 68.5629,68.563 37.857,0 68.564,-30.706 68.564,-68.563 0,-37.8555 -30.707,-68.562 -68.564,-68.562 z m 0,8.3745 c 33.229,0 60.189,26.9601 60.189,60.1875 0,33.229 -26.96,60.189 -60.189,60.189 -33.2278,0 -60.1878,-26.96 -60.1878,-60.189 0,-33.2274 26.96,-60.1875 60.1878,-60.1875 z"
     id="path1696"
     inkscape:connector-curvature="0" />
  <path
     inkscape:connector-curvature="0"
     id="path1700"
     d="m 122.603,61.4701 c -33.7546,0 -61.1327,27.3787 -61.1327,61.1319 0,33.754 27.3781,61.133 61.1327,61.133 33.755,0 61.134,-27.379 61.134,-61.133 0,-33.7532 -27.379,-61.1319 -61.134,-61.1319 z m 0,7.4669 c 29.628,0 53.666,24.0383 53.666,53.665 0,29.628 -24.038,53.666 -53.666,53.666 -29.6276,0 -53.6666,-24.038 -53.6666,-53.666 0,-29.6267 24.039,-53.665 53.6666,-53.665 z"
     style="opacity:1;fill:url(#linearGradient1702);stroke-width:0.386446;stroke-linejoin:bevel;stroke-opacity:0" />
</svg>
