<?xml version="1.0" encoding="UTF-8" standalone="no"?>
<!-- Copyright 2017 mathsisfun.com -->

<svg
   xmlns:dc="http://purl.org/dc/elements/1.1/"
   xmlns:cc="http://creativecommons.org/ns#"
   xmlns:rdf="http://www.w3.org/1999/02/22-rdf-syntax-ns#"
   xmlns:svg="http://www.w3.org/2000/svg"
   xmlns="http://www.w3.org/2000/svg"
   xmlns:xlink="http://www.w3.org/1999/xlink"
   xmlns:sodipodi="http://sodipodi.sourceforge.net/DTD/sodipodi-0.dtd"
   xmlns:inkscape="http://www.inkscape.org/namespaces/inkscape"
   width="172.852"
   height="172.852"
   version="1.0"
   id="svg251"
   sodipodi:docname="chkr-blu-k.svg"
   inkscape:version="0.92.3 (2405546, 2018-03-11)">
  <metadata
     id="metadata255">
    <rdf:RDF>
      <cc:Work
         rdf:about="">
        <dc:format>image/svg+xml</dc:format>
        <dc:type
           rdf:resource="http://purl.org/dc/dcmitype/StillImage" />
        <dc:title></dc:title>
      </cc:Work>
    </rdf:RDF>
  </metadata>
  <sodipodi:namedview
     pagecolor="#ffffff"
     bordercolor="#666666"
     borderopacity="1"
     objecttolerance="10"
     gridtolerance="10"
     guidetolerance="10"
     inkscape:pageopacity="0"
     inkscape:pageshadow="2"
     inkscape:window-width="640"
     inkscape:window-height="480"
     id="namedview253"
     showgrid="false"
     inkscape:current-layer="svg251" />
  <defs
     id="defs89">
    <linearGradient
       id="id10">
      <stop
         offset="0"
         style="stop-color:#e9e6f8;stop-opacity:1"
         id="stop7" />
      <stop
         offset="1"
         style="stop-color:#c2c0fc;stop-opacity:0.96"
         id="stop9" />
    </linearGradient>
    <linearGradient
       id="id4">
      <stop
         offset="0"
         style="stop-color:white;stop-opacity:1"
         id="stop39" />
      <stop
         offset="1"
         style="stop-color:white;stop-opacity:0"
         id="stop41" />
    </linearGradient>
    <linearGradient
       id="id9">
      <stop
         offset="0"
         style="stop-color:white;stop-opacity:0"
         id="stop68" />
      <stop
         offset="1"
         style="stop-color:black;stop-opacity:0.34"
         id="stop70" />
    </linearGradient>
    <radialGradient
       id="id31"
       r="41"
       fx="259"
       fy="484.362"
       cx="259"
       cy="484.4"
       gradientTransform="matrix(2.47267,0.701066,-0.63106,2.22581,-237.785,-1206.93)"
       xlink:href="#id9"
       gradientUnits="userSpaceOnUse" />
    <radialGradient
       id="id32"
       r="13.5"
       fx="259.852"
       fy="485.571"
       cx="259.9"
       cy="485.6"
       gradientTransform="matrix(-0.351557,4.15598,-2.17786,-0.187889,1001.87,-905.696)"
       xlink:href="#id4"
       gradientUnits="userSpaceOnUse" />
    <linearGradient
       id="id38"
       gradientTransform="matrix(2.42024,0,0,3.16192,113.066,88.567)"
       xlink:href="#id4"
       x1="-11"
       y1="-26"
       x2="-11"
       y2="1.4"
       gradientUnits="userSpaceOnUse" />
    <linearGradient
       id="id35"
       gradientTransform="matrix(0.437868,0,0,0.437868,-976.812,9.623)"
       xlink:href="#id10"
       x1="2406.4"
       y1="266.3"
       x2="2411.4"
       y2="52.3"
       gradientUnits="userSpaceOnUse" />
  </defs>
  <circle
     cx="86.426"
     cy="86.426"
     r="86.426"
     style="fill:#020080;stroke-width:0.44"
     id="circle217" />
  <circle
     cx="86.426"
     cy="86.426"
     r="86.426"
     style="fill:url(#id31);stroke-width:0.44"
     id="circle219" />
  <ellipse
     cx="-147.007"
     cy="83.0173"
     rx="29.2555"
     ry="56.4898"
     transform="matrix(-0.041453,-0.99914,0.999174,-0.040645,0,0)"
     style="opacity:0.5;fill:url(#id32);stroke-width:0.418712"
     id="ellipse221" />
  <path
     style="fill:url(#id35);stroke:#040607;stroke-width:0.44"
     d="m 37.726,76.826 -10.1,9.2 1,1.8 10.1,-9.6 z m 98.7,-0.7 c 3.3,1.5 6.4,4.1 9.2,7.8 l -1.1,1.6 c -2.9,-3.9 -5.8,-6.2 -8.7,-7.8 l 0.7,-1.6 v 0 z m -42.3,-13.7 0.3,2.9 1.2,0.1 c 9.2,0.3 18.5,1.8 27,5.9 l 0.4,-1.8 c -8.9,-3.9 -18.6,-6 -28.9,-7.1 z m -44.1,7.6 c 8.1,-3.8 18,-6.1 28.8,-7.6 0.3,1.1 0.4,1.8 0,2.9 -9.8,0.7 -19,2.8 -28.3,6.4 l -0.5,-1.8 v 0 z m 30.4,-10.2 6,-9.5 6.3,9.9 c 3.7,-4.9 1.2,-12.8 -6.3,-12.6 -6.9,0.5 -9.6,6.8 -6,12.2 z m -1.4,-23.2 1.3,0.8 h 4.6 l -0.2,-3.9 -1.6,-1.9 c 1.7,-1.3 4.5,-1 6.7,-0.1 l -1.5,2.1 v 3.9 h 3.6 l 1.9,-1.7 c 1,2.3 1,4.3 0,6.2 l -1.4,-1.2 -4.1,0.1 v 2.5 l 0.5,2.8 -4.8,0.1 0.7,-5.4 -4.6,0.2 -1.3,1.2 c -0.7,-2.1 -0.7,-4 0,-5.7 z m -39,27.1 c 4.2,3.4 10,3.9 10.5,16.3 6.9,-6.5 11,0.5 12.8,6.3 1.3,4.3 -0.9,9.4 1.1,16.7 -2.8,-0.6 -4.5,-3.1 -5.1,-7.4 -1.5,-7.2 -7.5,-5.4 -5.7,2.2 4,9.9 11,11.8 17.2,10.9 6.9,-1 12.8,-7.1 12.3,-17.1 -1.9,-5.2 -4,-5.4 -6.2,-0.5 -1.3,3.6 0.7,9.5 -3.9,10.8 0.3,-7 -5.4,-14 -5.4,-19.4 1,-9.2 6.1,-10.3 14,-5.8 -4.4,-11.4 1.1,-17.8 5,-23.2 4.2,6 8.5,11 5,23 9.4,-6.7 16.4,0.7 13.8,7.5 -2.1,5.5 -5.7,14 -5.1,18 -6.9,-1.8 0.1,-14.1 -7.4,-14.1 -5.2,1.7 -4.1,10.8 1.7,16.7 3.2,3.2 7.2,4.6 11.8,4.1 5.7,-0.1 10.1,-4.6 13.7,-12.1 1.2,-4.8 -3.1,-7.9 -4.8,-3.6 -1.2,5.5 -3,9.2 -6.4,10.2 1.2,-5.8 0.4,-12.8 1.3,-18.5 2.8,-8.1 7,-9.9 12.6,-5.6 0.5,-13.4 7.6,-13.6 10.9,-18.6 0.7,6.5 4.4,9.9 -2.5,20.8 5.5,0.9 7.8,4.4 3.3,13.4 -1.8,3.9 -4.8,6.9 -6.3,10.9 -2.9,-3.9 0.4,-5.8 0.6,-8.7 0.6,-4.8 -3.6,-4.1 -5.9,2.8 -0.8,7.9 1.8,13.1 11.5,12.3 3.8,-1.8 6.6,-4.7 8,-9.3 0.7,-2.5 -0.2,-4.1 -2.1,-3.2 -1.9,2.7 -4.4,8.7 -5.8,8.1 0.9,-3.9 2.2,-8.1 3.2,-12.1 1.9,-7.2 4.6,-9.2 8,-6 0.9,-6 5.6,-9.1 8.9,-11 l -5.1,14.6 c -4.6,-0.9 -4.6,3.9 -3.6,6.5 l -8,16.1 c -4.2,0.7 -5.7,3.6 -3.1,6.5 l -1.8,5.7 c -31,-8.6 -61.8,-8.6 -92.4,0.7 l -2.5,-4.6 c 3.4,-3.3 1.5,-7.1 -2.5,-7.2 l -8.5,-15.6 c 2.4,-3.2 0.4,-7.5 -3.8,-6.9 -1.7,-4.9 -2.3,-8.8 -5.1,-14.6 4.5,1.7 8.5,5.1 9.4,11.3 2.5,-4.1 5.1,-2.6 7.9,4.3 1.3,4.5 1,8.1 3.8,13.4 -3.9,-1.1 -4.2,-5.4 -6.3,-8.1 -1.5,-1.8 -3.7,0.1 -2.2,3.3 5.9,11.1 15,13 19.4,1.9 1,-5 -0.3,-8.8 -3.8,-11.5 -2.4,0 -2.8,2.2 -1.6,5.2 1.2,2.2 2.1,3.8 0.5,7.2 -3.2,-7.1 -6.3,-9.3 -7.9,-13.1 -2.7,-6.3 -2,-10.5 4.7,-11.2 -6.1,-8.5 -3.4,-12.2 -2.5,-18.7 v 0 z m 86,20.5 c 1.5,0.4 2.4,1.9 1.9,3.2 -0.5,1.4 -2.1,2.1 -3.6,1.7 -1.5,-0.4 -2.4,-1.9 -1.9,-3.2 0.5,-1.4 2.1,-2.1 3.6,-1.7 z m 0.4,-1.4 c 2.3,0.7 3.5,2.9 2.8,5 -0.7,2.1 -3.2,3.2 -5.4,2.5 -2.3,-0.7 -3.5,-2.9 -2.8,-5 0.7,-2.1 3.2,-3.2 5.4,-2.5 z m 21.9,11.9 c 1.1,0 2.1,1 2.1,2.3 0,1.3 -0.9,2.3 -2.1,2.3 -1.1,0 -2.1,-1 -2.1,-2.3 0,-1.3 0.9,-2.3 2.1,-2.3 z m -11.3,22.6 c 1.1,0 2.1,1 2.1,2.3 0,1.3 -0.9,2.3 -2.1,2.3 -1.1,0 -2.1,-1 -2.1,-2.3 0,-1.3 0.9,-2.3 2.1,-2.3 z m -19.4,-6.6 c 2,0.2 3.6,2.3 3.6,4.5 0,2.2 -1.6,3.9 -3.6,3.7 -2,-0.2 -3.6,-2.3 -3.6,-4.5 0,-2.2 1.6,-3.9 3.6,-3.6 z m -0.1,1.3 c 1.4,0.2 2.5,1.6 2.5,3.2 0,1.6 -1.1,2.7 -2.5,2.5 -1.4,-0.2 -2.5,-1.6 -2.5,-3.2 0,-1.6 1.1,-2.7 2.5,-2.5 z m -30.6,-34.1 c 2.7,0 4.9,2.1 4.9,4.7 0,2.6 -2.2,4.7 -4.9,4.7 -2.7,0 -4.9,-2.1 -4.9,-4.7 0,-2.6 2.2,-4.7 4.9,-4.7 z m -0.1,1.2 c 2,0 3.7,1.5 3.7,3.4 0,1.9 -1.7,3.4 -3.7,3.4 -2,0 -3.7,-1.5 -3.7,-3.4 0,-1.9 1.7,-3.4 3.7,-3.4 z m 0,28.3 c 2.4,0 4.4,1.9 4.4,4.3 0,2.4 -2,4.3 -4.4,4.3 -2.4,0 -4.4,-1.9 -4.4,-4.3 0,-2.4 2,-4.3 4.4,-4.3 z m -0.1,1.4 c 1.7,0 3,1.4 3,3.1 0,1.7 -1.4,3.1 -3,3.1 -1.7,0 -3,-1.4 -3,-3.1 0,-1.7 1.4,-3.1 3,-3.1 z m -38.1,-24.4 c 1.6,0 2.9,1.3 2.9,2.9 0,1.6 -1.3,2.9 -2.9,2.9 -1.6,0 -2.9,-1.3 -2.9,-2.9 0,-1.6 1.3,-2.9 2.9,-2.9 z m 0.1,-1.1 c 2.3,0 4.2,1.8 4.2,4.1 0,2.3 -1.8,4.1 -4.2,4.1 -2.3,0 -4.2,-1.8 -4.2,-4.1 0,-2.3 1.8,-4.1 4.2,-4.1 z m 7.5,27.8 c 2.1,0 3.7,1.8 3.7,4.1 0,2.3 -1.7,4.1 -3.7,4.1 -2.1,0 -3.7,-1.8 -3.7,-4.1 0,-2.3 1.7,-4.1 3.7,-4.1 z m 0,1.4 c 1.5,0 2.6,1.2 2.6,2.8 0,1.5 -1.2,2.8 -2.6,2.8 -1.4,0 -2.6,-1.2 -2.6,-2.8 0,-1.5 1.2,-2.8 2.6,-2.8 z m -19.3,6.4 c 1.1,0 2.1,1 2.1,2.2 0,1.2 -0.9,2.1 -2.1,2.1 -1.1,0 -2.1,-1 -2.1,-2.1 0,-1.2 0.9,-2.2 2.1,-2.2 z m -11.9,-23.5 c 1.1,0 1.9,1.1 1.9,2.5 0,1.4 -0.9,2.4 -1.9,2.4 -1.1,0 -1.9,-1.1 -1.9,-2.4 0,-1.4 0.9,-2.5 1.9,-2.5"
     id="path233"
     inkscape:connector-curvature="0" />
  <ellipse
     cx="86.426"
     cy="47.426"
     rx="65.3"
     ry="41.1"
     style="opacity:0.81;fill:url(#id38);stroke-width:0.44"
     id="ellipse239" />
</svg>
