<?xml version="1.0" encoding="UTF-8" standalone="no"?>
<!-- Copyright 2017 mathsisfun.com -->

<svg
   xmlns:dc="http://purl.org/dc/elements/1.1/"
   xmlns:cc="http://creativecommons.org/ns#"
   xmlns:rdf="http://www.w3.org/1999/02/22-rdf-syntax-ns#"
   xmlns:svg="http://www.w3.org/2000/svg"
   xmlns="http://www.w3.org/2000/svg"
   xmlns:xlink="http://www.w3.org/1999/xlink"
   xmlns:sodipodi="http://sodipodi.sourceforge.net/DTD/sodipodi-0.dtd"
   xmlns:inkscape="http://www.inkscape.org/namespaces/inkscape"
   width="248.827"
   height="248.827"
   version="1.0"
   id="svg251"
   sodipodi:docname="chkr-wht-k.svg"
   inkscape:version="0.92.3 (2405546, 2018-03-11)">
  <metadata
     id="metadata255">
    <rdf:RDF>
      <cc:Work
         rdf:about="">
        <dc:format>image/svg+xml</dc:format>
        <dc:type
           rdf:resource="http://purl.org/dc/dcmitype/StillImage" />
        <dc:title></dc:title>
      </cc:Work>
    </rdf:RDF>
  </metadata>
  <sodipodi:namedview
     pagecolor="#ffffff"
     bordercolor="#666666"
     borderopacity="1"
     objecttolerance="10"
     gridtolerance="10"
     guidetolerance="10"
     inkscape:pageopacity="0"
     inkscape:pageshadow="2"
     inkscape:window-width="640"
     inkscape:window-height="480"
     id="namedview253"
     showgrid="false"
     inkscape:current-layer="svg251" />
  <defs
     id="defs89">
    <linearGradient
       id="linearGradient1070">
      <stop
         id="stop1064"
         style="stop-color:white;stop-opacity:0"
         offset="0" />
      <stop
         id="stop1066"
         style="stop-color:#ffffff;stop-opacity:0.983871"
         offset="0.5" />
      <stop
         id="stop1068"
         style="stop-color:#d8d8d8;stop-opacity:0"
         offset="1" />
    </linearGradient>
    <linearGradient
       id="id2">
      <stop
         offset="0"
         style="stop-color:white;stop-opacity:0"
         id="stop32" />
      <stop
         offset="0.5"
         style="stop-color:white;stop-opacity:0.84"
         id="stop34" />
      <stop
         offset="1"
         style="stop-color:#d8d8d8;stop-opacity:0"
         id="stop36" />
    </linearGradient>
    <linearGradient
       id="id1">
      <stop
         offset="0"
         style="stop-color:black;stop-opacity:1"
         id="stop44" />
      <stop
         offset="1"
         style="stop-color:#2c377b;stop-opacity:0.37"
         id="stop46" />
    </linearGradient>
    <linearGradient
       id="id17"
       xlink:href="#id1"
       x1="658.5"
       y1="811.7"
       x2="122.9"
       y2="278.1"
       gradientUnits="userSpaceOnUse" />
    <linearGradient
       id="id18"
       xlink:href="#linearGradient1070"
       x1="158.7"
       y1="340.6"
       x2="660.9"
       y2="767.8"
       gradientUnits="userSpaceOnUse"
       gradientTransform="matrix(0.471474,0,0,0.426779,-45.4335,-97.2865)" />
    <linearGradient
       id="id19"
       gradientTransform="matrix(0.437868,0,0,0.437868,-45.9258,-115.382)"
       xlink:href="#id2"
       x1="535.3"
       y1="683.8"
       x2="159.6"
       y2="354.5"
       gradientUnits="userSpaceOnUse" />
    <linearGradient
       id="id36"
       gradientTransform="matrix(0.546113,0,0,0.546113,-1203.11,29.4549)"
       xlink:href="#id11"
       x1="2406.4"
       y1="266.3"
       x2="2411.4"
       y2="52.3"
       gradientUnits="userSpaceOnUse" />
    <linearGradient
       id="id11">
      <stop
         offset="0"
         style="stop-color:#ffffff;stop-opacity:1"
         id="stop2" />
      <stop
         offset="1"
         style="stop-color:#f5d4d8;stop-opacity:0.39"
         id="stop4" />
    </linearGradient>
  </defs>
  <circle
     cx="125.091"
     cy="124.645"
     r="122.571"
     style="color:#000000;overflow:visible;fill:#999999;stroke-width:5.25;stroke-linecap:round"
     id="circle115" />
  <g
     transform="matrix(0.437868,0,0,0.437868,-39.5023,-106.584)"
     id="g119">
    <path
       style="fill:url(#id17);stroke:#cccccc;stroke-width:1.77;stroke-linejoin:bevel;stroke-opacity:0"
       d="m 377.6,810.8 c 154.6,0 280,-125.4 280,-280 0,-93.4 -45.8,-176.1 -116.1,-226.9 65.8,51.3 108.1,131.2 108.1,220.9 0,154.6 -125.4,280 -280,280 -61.2,0 -117.8,-19.7 -163.9,-53.1 47.5,37 107.1,59.1 171.9,59.1 z M 225.8,724.1 C 168.5,679.1 131.7,609.2 131.7,530.8 131.7,395.1 241.8,285 377.5,285 c 53.4,0 102.8,17.1 143.2,46 -41.7,-32.6 -94.2,-52 -151.2,-52 -135.7,0 -245.8,110.1 -245.8,245.8 0,82 40.3,154.7 102.1,199.3 z"
       id="path117"
       inkscape:connector-curvature="0" />
  </g>
  <g
     transform="matrix(0.437868,0,0,0.437868,-39.5023,-106.584)"
     id="g123">
    <path
       style="fill:#fefefd;fill-opacity:0.45;stroke:#cccccc;stroke-width:1.77;stroke-linejoin:bevel;stroke-opacity:0"
       d="m 371.1,244.3 c -154.6,0 -280,125.4 -280,280 0,93.4 45.8,176.1 116.1,226.9 C 141.4,699.9 99.1,620 99.1,530.3 c 1e-4,-154.6 125.4,-280 280,-280 61.2,0 117.8,19.7 163.9,53.1 -47.5,-37 -107.1,-59.1 -171.9,-59.1 z M 522.9,331 c 57.3,45 94.1,114.9 94.1,193.3 0,135.7 -110.1,245.8 -245.8,245.8 -53.4,0 -102.8,-17.1 -143.2,-46 41.7,32.6 94.2,52 151.2,52 C 514.9,776.1 625,666 625,530.3 625,448.3 584.7,375.6 522.9,331 Z"
       id="path121"
       inkscape:connector-curvature="0" />
  </g>
  <path
     inkscape:connector-curvature="0"
     id="path127"
     d="M 122.99,0.387463 C 55.2961,0.387463 0.387494,55.2961 0.387494,122.99 c 0,67.695 54.908606,122.603 122.602506,122.603 67.695,0 122.604,-54.908 122.604,-122.603 C 245.594,55.2961 190.685,0.387463 122.99,0.387463 Z m 0,14.975137 c 59.419,0 107.628,48.2093 107.628,107.6274 0,59.419 -48.209,107.628 -107.628,107.628 -59.4182,0 -107.6275,-48.209 -107.6275,-107.628 0,-59.4181 48.2093,-107.6274 107.6275,-107.6274 z"
     style="opacity:0.93;fill:url(#id19);stroke-width:0.775026;stroke-linejoin:bevel;stroke-opacity:0" />
  <path
     inkscape:connector-curvature="0"
     id="path125"
     d="m 230.615,123.358 a 106.506,107.036 0 1 1 -212.9653,0 106.506,107.036 0 1 1 212.9653,0 z"
     style="opacity:0.92;fill:url(#id18);stroke-width:0.793969;stroke-linejoin:bevel" />
  <path
     style="fill:url(#id36);stroke:#000000;stroke-width:0.548773"
     d="m 62.2702,113.336 -12.5968,11.474 1.2472,2.245 12.5969,-11.973 z M 185.37,112.463 c 4.116,1.871 7.858,5.113 11.475,9.728 l -1.372,1.996 c -3.617,-4.865 -7.234,-7.733 -10.851,-9.729 l 0.873,-1.995 v 0 z m -52.758,-17.087 0.374,3.617 1.497,0.125 c 11.474,0.374 23.073,2.245 33.676,7.358 l 0.499,-2.245 c -10.977,-4.864 -23.2,-7.483 -36.046,-8.855 z m -54.8763,9.479 c 10.1024,-4.74 22.4493,-7.608 35.9193,-9.479 0.374,1.372 0.498,2.245 0,3.617 -12.223,0.873 -23.6967,3.492 -35.2957,7.982 l -0.6236,-2.245 v 0 z m 37.7893,-12.7214 7.484,-11.8485 7.857,12.3474 c 4.615,-6.1113 1.497,-15.9643 -7.857,-15.7149 -8.606,0.6236 -11.974,8.4811 -7.484,15.216 z m -1.746,-28.9353 1.622,0.9978 h 5.737 l -0.25,-4.8642 -1.995,-2.3697 c 2.12,-1.6213 5.612,-1.2472 8.356,-0.1247 l -1.871,2.6192 v 4.8641 h 4.49 l 2.37,-2.1203 c 1.247,2.8686 1.247,5.363 0,7.7327 l -1.746,-1.4966 -5.114,0.1247 v 3.118 l 0.624,3.4922 -5.987,0.1247 0.873,-6.7349 -5.737,0.2495 -1.621,1.4966 c -0.873,-2.6191 -0.873,-4.9888 0,-7.1091 z M 65.1388,96.998 c 5.2383,4.24 12.4721,4.863 13.0957,20.329 8.6058,-8.107 13.719,0.623 15.8393,7.857 1.6213,5.239 -1.1225,11.724 1.3719,20.829 -3.4922,-0.749 -5.6121,-3.867 -6.3604,-9.23 -1.8708,-8.98 -9.3541,-6.735 -6.9844,2.744 4.9888,12.348 13.5942,14.717 21.4511,13.595 8.606,-1.247 15.964,-8.855 15.341,-21.328 -2.37,-6.485 -4.864,-6.734 -7.733,-0.623 -1.621,4.49 0.873,11.848 -4.864,13.47 0.374,-8.731 -6.7346,-17.461 -6.7346,-24.196 1.2466,-11.474 7.6076,-12.846 17.4606,-7.234 -5.488,-14.218 1.372,-22.1999 6.236,-28.9348 5.238,7.4832 10.601,13.7188 6.236,28.6858 11.724,-8.357 20.454,0.873 17.212,9.354 -2.619,6.859 -7.109,17.461 -6.361,22.449 -8.606,-2.244 0,-17.585 -9.229,-17.585 -6.486,2.12 -5.114,13.47 2.12,20.828 3.991,3.991 8.98,5.737 14.717,5.114 7.109,-0.125 12.597,-5.737 17.088,-15.091 1.497,-5.987 -3.868,-9.853 -5.988,-4.49 -1.497,6.859 -3.742,11.474 -7.857,12.721 1.496,-7.234 0.499,-15.964 1.621,-23.073 3.492,-10.103 8.73,-12.348 15.716,-6.985 0.624,-16.712 9.479,-16.961 13.595,-23.1974 0.873,8.1064 5.487,12.3474 -3.118,25.9414 6.859,1.123 9.728,5.488 4.115,16.713 -2.244,4.864 -5.986,8.606 -7.857,13.594 -3.617,-4.864 0.499,-7.233 0.748,-10.85 0.749,-5.987 -4.49,-5.114 -7.358,3.492 -0.873,9.853 2.245,16.338 14.343,15.341 4.739,-2.245 8.231,-5.862 9.977,-11.599 0.874,-3.118 -0.249,-5.114 -2.619,-3.992 -2.369,3.368 -5.487,10.851 -7.234,10.103 1.123,-4.864 2.744,-10.103 3.992,-14.967 2.369,-8.98 5.737,-11.474 9.977,-7.483 1.123,-7.483 6.985,-11.35 10.976,-13.719 l -6.361,18.209 c -5.737,-1.122 -5.737,4.864 -4.49,8.107 l -9.978,20.08 c -5.238,0.873 -7.109,4.49 -3.866,8.107 l -2.245,7.109 c -38.665,-10.726 -77.079,-10.726 -115.2428,0.873 l -3.1181,-5.737 c 4.2405,-4.116 1.7461,-8.855 -3.118,-8.98 L 49.0498,143.892 c 2.9933,-3.991 0.4989,-9.354 -4.7394,-8.605 -2.1203,-6.112 -2.8686,-10.976 -6.3608,-18.21 5.6125,2.121 10.6013,6.361 11.7238,14.219 3.118,-5.114 6.3608,-3.243 9.853,5.363 1.6214,5.612 1.2472,10.102 4.7394,16.712 -4.8641,-1.372 -5.2383,-6.735 -7.8575,-10.102 -1.8708,-2.245 -4.6146,0.125 -2.7438,4.116 7.3585,13.844 18.7082,16.213 24.1959,2.369 1.2472,-6.236 -0.3742,-10.975 -4.7394,-14.343 -2.9933,0 -3.4922,2.744 -1.9956,6.486 1.4967,2.744 2.6192,4.739 0.6236,8.98 -3.991,-8.855 -7.8574,-11.599 -9.8529,-16.339 -3.3675,-7.857 -2.4944,-13.095 5.8619,-13.968 -7.608,-10.602 -4.2405,-15.216 -3.1181,-23.323 v 0 z m 107.2602,25.567 c 1.871,0.499 2.994,2.37 2.37,3.991 -0.623,1.746 -2.619,2.619 -4.49,2.12 -1.871,-0.498 -2.993,-2.369 -2.369,-3.991 0.623,-1.746 2.619,-2.619 4.489,-2.12 z m 0.499,-1.746 c 2.869,0.873 4.366,3.617 3.493,6.236 -0.874,2.619 -3.992,3.991 -6.735,3.118 -2.869,-0.873 -4.366,-3.617 -3.493,-6.236 0.873,-2.619 3.991,-3.991 6.735,-3.118 z m 27.314,14.842 c 1.372,0 2.619,1.247 2.619,2.868 0,1.622 -1.122,2.869 -2.619,2.869 -1.372,0 -2.619,-1.247 -2.619,-2.869 0,-1.621 1.123,-2.868 2.619,-2.868 z m -14.093,28.187 c 1.372,0 2.619,1.247 2.619,2.868 0,1.622 -1.123,2.869 -2.619,2.869 -1.372,0 -2.619,-1.247 -2.619,-2.869 0,-1.621 1.122,-2.868 2.619,-2.868 z m -24.197,-8.232 c 2.495,0.25 4.491,2.869 4.491,5.613 0,2.744 -1.996,4.864 -4.491,4.614 -2.495,-0.249 -4.49,-2.868 -4.49,-5.612 0,-2.744 1.995,-4.864 4.49,-4.49 z m 0,1.622 c 1.747,0.249 3.119,1.995 3.119,3.991 0,1.995 -1.372,3.367 -3.119,3.118 -1.746,-0.25 -3.118,-1.996 -3.118,-3.991 0,-1.996 1.372,-3.368 3.118,-3.118 z m -38.04,-42.53 c 3.367,0 6.111,2.619 6.111,5.862 0,3.242 -2.744,5.861 -6.111,5.861 -3.368,0 -6.112,-2.619 -6.112,-5.861 0,-3.243 2.744,-5.862 6.112,-5.862 z m -0.125,1.496 c 2.494,0 4.615,1.871 4.615,4.241 0,2.37 -2.121,4.24 -4.615,4.24 -2.494,0 -4.615,-1.87 -4.615,-4.24 0,-2.37 2.121,-4.241 4.615,-4.241 z m 0,35.172 c 2.993,0 5.488,2.369 5.488,5.363 0,2.993 -2.495,5.363 -5.488,5.363 -2.993,0 -5.488,-2.37 -5.488,-5.363 0,-2.994 2.495,-5.363 5.488,-5.363 z m 0,1.746 c 2.12,0 3.742,1.746 3.742,3.866 0,2.12 -1.746,3.867 -3.742,3.867 -2.12,0 -3.742,-1.747 -3.742,-3.867 0,-2.12 1.746,-3.866 3.742,-3.866 z M 76.239,122.69 c 1.9955,0 3.6169,1.621 3.6169,3.617 0,1.995 -1.6214,3.617 -3.6169,3.617 -1.9955,0 -3.6169,-1.622 -3.6169,-3.617 0,-1.996 1.6214,-3.617 3.6169,-3.617 z m 0.1247,-1.372 c 2.8686,0 5.2383,2.245 5.2383,5.113 0,2.869 -2.245,5.114 -5.2383,5.114 -2.8686,0 -5.2383,-2.245 -5.2383,-5.114 0,-2.868 2.245,-5.113 5.2383,-5.113 z m 9.2294,34.672 c 2.6191,0 4.6147,2.245 4.6147,5.114 0,2.869 -2.1203,5.114 -4.6147,5.114 -2.6192,0 -4.6147,-2.245 -4.6147,-5.114 0,-2.869 2.1203,-5.114 4.6147,-5.114 z m 0,1.746 c 1.7461,0 3.2427,1.497 3.2427,3.493 0,1.87 -1.4966,3.492 -3.2427,3.492 -1.7461,0 -3.2428,-1.497 -3.2428,-3.492 0,-1.871 1.4967,-3.493 3.2428,-3.493 z m -24.0712,7.983 c 1.3719,0 2.6192,1.247 2.6192,2.744 0,1.496 -1.1225,2.619 -2.6192,2.619 -1.3719,0 -2.6191,-1.248 -2.6191,-2.619 0,-1.497 1.1225,-2.744 2.6191,-2.744 z m -14.8418,-29.31 c 1.3719,0 2.3697,1.372 2.3697,3.118 0,1.746 -1.1225,2.994 -2.3697,2.994 -1.3719,0 -2.3697,-1.372 -2.3697,-2.994 0,-1.746 1.1225,-3.118 2.3697,-3.118"
     id="path235"
     inkscape:connector-curvature="0" />
</svg>
