<?xml version="1.0" encoding="UTF-8" standalone="no"?>
<!-- Copyright 2017 mathsisfun.com -->

<svg
   xmlns:dc="http://purl.org/dc/elements/1.1/"
   xmlns:cc="http://creativecommons.org/ns#"
   xmlns:rdf="http://www.w3.org/1999/02/22-rdf-syntax-ns#"
   xmlns:svg="http://www.w3.org/2000/svg"
   xmlns="http://www.w3.org/2000/svg"
   xmlns:xlink="http://www.w3.org/1999/xlink"
   xmlns:sodipodi="http://sodipodi.sourceforge.net/DTD/sodipodi-0.dtd"
   xmlns:inkscape="http://www.inkscape.org/namespaces/inkscape"
   width="245.207"
   height="245.205"
   version="1.0"
   id="svg251"
   sodipodi:docname="chkr-blk-k.svg"
   inkscape:version="0.92.3 (2405546, 2018-03-11)">
  <metadata
     id="metadata255">
    <rdf:RDF>
      <cc:Work
         rdf:about="">
        <dc:format>image/svg+xml</dc:format>
        <dc:type
           rdf:resource="http://purl.org/dc/dcmitype/StillImage" />
        <dc:title></dc:title>
      </cc:Work>
    </rdf:RDF>
  </metadata>
  <sodipodi:namedview
     pagecolor="#ffffff"
     bordercolor="#666666"
     borderopacity="1"
     objecttolerance="10"
     gridtolerance="10"
     guidetolerance="10"
     inkscape:pageopacity="0"
     inkscape:pageshadow="2"
     inkscape:window-width="640"
     inkscape:window-height="480"
     id="namedview253"
     showgrid="false"
     inkscape:current-layer="svg251" />
  <defs
     id="defs89">
    <linearGradient
       id="linearGradient1070">
      <stop
         id="stop1064"
         style="stop-color:white;stop-opacity:0"
         offset="0" />
      <stop
         id="stop1066"
         style="stop-color:#ffffff;stop-opacity:0.602151"
         offset="0.5" />
      <stop
         id="stop1068"
         style="stop-color:#d8d8d8;stop-opacity:0"
         offset="1" />
    </linearGradient>
    <linearGradient
       id="id2">
      <stop
         offset="0"
         style="stop-color:#8d8d8d;stop-opacity:0.45098"
         id="stop32" />
      <stop
         offset="0.5"
         style="stop-color:#cacaca;stop-opacity:0.839216"
         id="stop34" />
      <stop
         offset="1"
         style="stop-color:#464646;stop-opacity:1"
         id="stop36" />
    </linearGradient>
    <linearGradient
       id="id1">
      <stop
         offset="0"
         style="stop-color:black;stop-opacity:1"
         id="stop44" />
      <stop
         offset="1"
         style="stop-color:#2c377b;stop-opacity:0.37"
         id="stop46" />
    </linearGradient>
    <linearGradient
       id="id17"
       xlink:href="#id1"
       x1="658.5"
       y1="811.7"
       x2="122.9"
       y2="278.1"
       gradientUnits="userSpaceOnUse" />
    <linearGradient
       id="id18"
       xlink:href="#linearGradient1070"
       x1="158.7"
       y1="340.6"
       x2="660.9"
       y2="767.8"
       gradientUnits="userSpaceOnUse"
       gradientTransform="matrix(0.471474,0,0,0.426779,-46.9624,-98.0418)" />
    <linearGradient
       id="id19"
       gradientTransform="matrix(0.437868,0,0,0.437868,-46.3131,-115.77)"
       xlink:href="#id2"
       x1="595.856"
       y1="752.567"
       x2="159.6"
       y2="354.5"
       gradientUnits="userSpaceOnUse" />
    <linearGradient
       id="linearGradient1710">
      <stop
         id="stop1704"
         style="stop-color:#737373;stop-opacity:0.490196"
         offset="0" />
      <stop
         id="stop1706"
         style="stop-color:#aaaaaa;stop-opacity:0.839216"
         offset="0.5" />
      <stop
         id="stop1708"
         style="stop-color:#515151;stop-opacity:0.447059"
         offset="1" />
    </linearGradient>
    <linearGradient
       id="linearGradient1718">
      <stop
         id="stop1712"
         style="stop-color:#606060;stop-opacity:0.419608"
         offset="0" />
      <stop
         id="stop1714"
         style="stop-color:#949494;stop-opacity:0.839216"
         offset="0.5" />
      <stop
         id="stop1716"
         style="stop-color:#4e4e4e;stop-opacity:0.392157"
         offset="1" />
    </linearGradient>
    <linearGradient
       id="id36"
       gradientTransform="matrix(0.557778,0,0,0.557778,-1231.83,27.1969)"
       xlink:href="#id11"
       x1="2406.4"
       y1="266.3"
       x2="2411.4"
       y2="52.3"
       gradientUnits="userSpaceOnUse" />
    <linearGradient
       id="id11">
      <stop
         offset="0"
         style="stop-color:#454545;stop-opacity:1"
         id="stop2" />
      <stop
         offset="1"
         style="stop-color:#efefef;stop-opacity:0.72043"
         id="stop4" />
    </linearGradient>
  </defs>
  <circle
     cx="122.604"
     cy="122.602"
     r="122.571"
     style="color:#000000;overflow:visible;fill:#000000;stroke-width:5.25;stroke-linecap:round"
     id="circle115" />
  <path
     inkscape:connector-curvature="0"
     id="path125"
     d="m 229.086,122.602 a 106.506,107.036 0 1 1 -212.9651,0 106.506,107.036 0 1 1 212.9651,0 z"
     style="opacity:0.92;fill:url(#id18);stroke-width:0.793969;stroke-linejoin:bevel" />
  <path
     inkscape:connector-curvature="0"
     id="path127"
     d="M 122.603,0 C 54.9091,0 0,54.9087 0,122.602 c 0,67.695 54.9091,122.603 122.603,122.603 67.695,0 122.604,-54.908 122.604,-122.603 C 245.207,54.9087 190.298,0 122.603,0 Z m 0,14.9752 c 59.419,0 107.628,48.2093 107.628,107.6268 0,59.419 -48.209,107.628 -107.628,107.628 -59.4182,0 -107.6275,-48.209 -107.6275,-107.628 0,-59.4175 48.2093,-107.6268 107.6275,-107.6268 z"
     style="opacity:0.93;fill:url(#id19);stroke-width:0.775026;stroke-linejoin:bevel;stroke-opacity:0" />
  <path
     style="fill:url(#id36);stroke:#000000;stroke-width:0.560495"
     d="m 60.5864,112.871 -12.8659,11.719 1.2739,2.293 12.8659,-12.229 z m 125.7296,-0.892 c 4.204,1.911 8.025,5.223 11.719,9.936 l -1.401,2.038 c -3.694,-4.968 -7.388,-7.898 -11.082,-9.936 l 0.891,-2.038 v 0 z m -53.884,-17.452 0.382,3.694 1.529,0.127 c 11.719,0.383 23.566,2.293 34.394,7.517 l 0.509,-2.293 c -11.21,-4.969 -23.693,-7.644 -36.814,-9.045 z m -56.0501,9.682 c 10.3182,-4.841 22.9301,-7.772 36.6871,-9.682 0.383,1.401 0.51,2.293 0,3.694 -12.483,0.892 -24.2033,3.567 -36.0502,8.153 l -0.6369,-2.293 v 0 z m 38.5981,-12.9946 7.643,-12.1016 8.026,12.6112 c 4.713,-6.2419 1.528,-16.3053 -8.026,-16.0506 -8.789,0.637 -12.229,8.6622 -7.643,15.541 z m -1.783,-29.5533 1.656,1.0191 h 5.859 l -0.254,-4.9681 -2.038,-2.4203 c 2.165,-1.656 5.732,-1.2738 8.534,-0.1274 l -1.91,2.6751 v 4.968 h 4.585 l 2.421,-2.1655 c 1.274,2.9299 1.274,5.4776 0,7.8979 l -1.784,-1.5286 -5.222,0.1273 v 3.1847 l 0.636,3.5668 -6.114,0.1273 0.892,-6.8788 -5.86,0.2548 -1.656,1.5286 c -0.892,-2.6751 -0.892,-5.0954 0,-7.2609 z M 63.5163,96.183 c 5.3501,4.331 12.7382,4.968 13.3752,20.764 8.7895,-8.28 14.0123,0.637 16.1784,8.025 1.656,5.35 -1.147,11.975 1.4012,21.274 -3.5673,-0.765 -5.7328,-3.949 -6.4971,-9.427 -1.9108,-9.172 -9.5539,-6.879 -7.1336,2.803 5.0954,12.611 13.8855,15.031 21.9106,13.885 8.79,-1.274 16.305,-9.045 15.669,-21.783 -2.421,-6.624 -4.968,-6.879 -7.898,-0.637 -1.656,4.586 0.891,12.101 -4.968,13.757 0.382,-8.917 -6.879,-17.834 -6.879,-24.712 1.274,-11.72 7.77,-13.121 17.834,-7.389 -5.605,-14.522 1.401,-22.675 6.369,-29.5538 5.35,7.6431 10.828,14.0128 6.369,29.2998 11.974,-8.535 20.891,0.891 17.579,9.553 -2.675,7.007 -7.261,17.834 -6.496,22.93 -8.79,-2.293 0,-17.962 -9.427,-17.962 -6.624,2.166 -5.223,13.758 2.166,21.274 4.076,4.076 9.172,5.86 15.031,5.223 7.261,-0.128 12.866,-5.86 17.452,-15.414 1.529,-6.115 -3.949,-10.063 -6.114,-4.586 -1.529,7.006 -3.822,11.72 -8.026,12.993 1.529,-7.388 0.51,-16.305 1.656,-23.566 3.567,-10.318 8.917,-12.611 16.051,-7.133 0.637,-17.07 9.681,-17.325 13.885,-23.6949 0.892,8.2809 5.605,12.6119 -3.185,26.4969 7.006,1.147 9.936,5.605 4.204,17.07 -2.293,4.968 -6.115,8.789 -8.025,13.885 -3.695,-4.968 0.509,-7.389 0.764,-11.083 0.764,-6.114 -4.586,-5.223 -7.516,3.567 -0.891,10.063 2.293,16.687 14.65,15.668 4.84,-2.293 8.407,-5.987 10.19,-11.847 0.892,-3.184 -0.254,-5.222 -2.675,-4.076 -2.42,3.44 -5.605,11.083 -7.388,10.318 1.146,-4.968 2.802,-10.318 4.076,-15.286 2.421,-9.172 5.86,-11.719 10.191,-7.643 1.147,-7.643 7.134,-11.592 11.21,-14.012 l -6.497,18.598 c -5.859,-1.147 -5.859,4.968 -4.586,8.28 l -10.19,20.509 c -5.351,0.892 -7.261,4.586 -3.949,8.28 l -2.293,7.261 c -39.49,-10.955 -78.724,-10.955 -117.7044,0.892 l -3.1847,-5.86 c 4.3311,-4.204 1.7834,-9.044 -3.1846,-9.172 L 47.0836,144.08 c 3.0572,-4.076 0.5095,-9.554 -4.8407,-8.79 -2.1655,-6.241 -2.9298,-11.209 -6.4966,-18.598 5.7323,2.166 10.8277,6.497 11.9742,14.522 3.1846,-5.223 6.4966,-3.312 10.0634,5.478 1.656,5.732 1.2739,10.318 4.8407,17.069 -4.9681,-1.401 -5.3502,-6.878 -8.0253,-10.318 -1.9108,-2.293 -4.7132,0.128 -2.8025,4.204 7.5158,14.14 19.1076,16.56 24.7125,2.42 1.2739,-6.369 -0.3822,-11.21 -4.8406,-14.649 -3.057,0 -3.5666,2.802 -2.0379,6.624 1.5283,2.802 2.6748,4.841 0.6366,9.172 -4.076,-9.045 -8.025,-11.847 -10.0631,-16.688 -3.4394,-8.025 -2.5478,-13.375 5.9871,-14.267 -7.7705,-10.828 -4.3311,-15.541 -3.1847,-23.822 v 0 z m 109.5517,26.114 c 1.911,0.51 3.057,2.421 2.42,4.077 -0.637,1.783 -2.675,2.675 -4.586,2.165 -1.911,-0.509 -3.057,-2.42 -2.42,-4.076 0.637,-1.784 2.675,-2.675 4.586,-2.166 z m 0.509,-1.783 c 2.93,0.892 4.459,3.694 3.567,6.369 -0.892,2.675 -4.076,4.076 -6.879,3.185 -2.93,-0.892 -4.458,-3.694 -3.566,-6.37 0.891,-2.675 4.076,-4.076 6.878,-3.184 z m 27.898,15.159 c 1.401,0 2.675,1.274 2.675,2.93 0,1.656 -1.147,2.929 -2.675,2.929 -1.402,0 -2.675,-1.273 -2.675,-2.929 0,-1.656 1.146,-2.93 2.675,-2.93 z m -14.395,28.789 c 1.401,0 2.675,1.274 2.675,2.93 0,1.656 -1.146,2.929 -2.675,2.929 -1.401,0 -2.675,-1.273 -2.675,-2.929 0,-1.656 1.147,-2.93 2.675,-2.93 z m -24.713,-8.408 c 2.548,0.255 4.586,2.93 4.586,5.733 0,2.802 -2.038,4.968 -4.586,4.713 -2.547,-0.255 -4.585,-2.93 -4.585,-5.732 0,-2.803 2.038,-4.968 4.585,-4.586 z m 0,1.656 c 1.784,0.255 3.185,2.038 3.185,4.077 0,2.038 -1.401,3.439 -3.185,3.184 -1.783,-0.255 -3.184,-2.038 -3.184,-4.076 0,-2.038 1.401,-3.439 3.184,-3.185 z m -38.852,-43.438 c 3.439,0 6.242,2.675 6.242,5.987 0,3.312 -2.803,5.987 -6.242,5.987 -3.439,0 -6.242,-2.675 -6.242,-5.987 0,-3.312 2.803,-5.987 6.242,-5.987 z m -0.127,1.529 c 2.547,0 4.713,1.91 4.713,4.331 0,2.42 -2.166,4.331 -4.713,4.331 -2.548,0 -4.714,-1.911 -4.714,-4.331 0,-2.421 2.166,-4.331 4.714,-4.331 z m 0,35.922 c 3.057,0 5.605,2.421 5.605,5.478 0,3.057 -2.548,5.477 -5.605,5.477 -3.058,0 -5.605,-2.42 -5.605,-5.477 0,-3.057 2.547,-5.478 5.605,-5.478 z m 0,1.784 c 2.165,0 3.821,1.783 3.821,3.949 0,2.165 -1.783,3.948 -3.821,3.948 -2.166,0 -3.822,-1.783 -3.822,-3.948 0,-2.166 1.783,-3.949 3.822,-3.949 z M 74.8533,122.425 c 2.0382,0 3.6942,1.656 3.6942,3.694 0,2.038 -1.656,3.694 -3.6942,3.694 -2.0382,0 -3.6942,-1.656 -3.6942,-3.694 0,-2.038 1.656,-3.694 3.6942,-3.694 z m 0.1274,-1.402 c 2.9298,0 5.3502,2.293 5.3502,5.223 0,2.93 -2.293,5.223 -5.3502,5.223 -2.9299,0 -5.3499,-2.293 -5.3499,-5.223 0,-2.93 2.2926,-5.223 5.3499,-5.223 z m 9.4265,35.413 c 2.6751,0 4.7132,2.293 4.7132,5.223 0,2.93 -2.1655,5.223 -4.7132,5.223 -2.6751,0 -4.7133,-2.293 -4.7133,-5.223 0,-2.93 2.1656,-5.223 4.7133,-5.223 z m 0,1.784 c 1.7834,0 3.312,1.528 3.312,3.567 0,1.91 -1.5286,3.566 -3.312,3.566 -1.7834,0 -3.312,-1.528 -3.312,-3.566 0,-1.911 1.5286,-3.567 3.312,-3.567 z m -24.5851,8.152 c 1.4012,0 2.6751,1.274 2.6751,2.803 0,1.529 -1.1465,2.675 -2.6751,2.675 -1.4012,0 -2.6751,-1.274 -2.6751,-2.675 0,-1.529 1.1465,-2.803 2.6751,-2.803 z M 44.6633,136.437 c 1.4012,0 2.4203,1.401 2.4203,3.185 0,1.783 -1.1465,3.057 -2.4203,3.057 -1.4013,0 -2.4204,-1.401 -2.4204,-3.057 0,-1.784 1.1465,-3.185 2.4204,-3.185"
     id="path235"
     inkscape:connector-curvature="0" />
</svg>
